<svg width="25" height="25" viewBox="0 0 25 25" fill="none" xmlns="http://www.w3.org/2000/svg">
<path d="M12.5 0C5.59652 0 0 5.59652 0 12.5C0 19.4035 5.59652 25 12.5 25C19.4035 25 25 19.4035 25 12.5C24.9923 5.59977 19.4002 0.00773115 12.5 0ZM23.3107 16.8791L19.7559 17.4925C20.1628 16.0002 20.3825 14.4631 20.41 12.9167H24.1563C24.1093 14.2769 23.823 15.6183 23.3107 16.8791ZM0.843709 12.9167H4.59005C4.61751 14.4631 4.83724 16.0002 5.24414 17.4925L1.68925 16.8791C1.17696 15.6183 0.890706 14.2769 0.843709 12.9167ZM1.68925 8.12093L5.24414 7.50753C4.83724 8.99984 4.61751 10.5369 4.59005 12.0833H0.843709C0.890706 10.7231 1.17696 9.38171 1.68925 8.12093ZM12.9167 6.69006C14.4139 6.70919 15.9074 6.8455 17.3834 7.09798L18.8542 7.35168C19.306 8.88936 19.5492 10.4808 19.577 12.0833H12.9167V6.69006ZM17.5254 6.27665C16.0026 6.01644 14.4615 5.87585 12.9167 5.85673V0.85673C15.3054 1.08622 17.3804 3.27332 18.5563 6.4563L17.5254 6.27665ZM12.0833 5.85673C10.5385 5.87585 8.9978 6.01644 7.47498 6.27665L6.44368 6.45508C7.61963 3.27128 9.69462 1.08337 12.0833 0.854899V5.85673ZM7.61698 7.09798C9.09281 6.8455 10.5861 6.70919 12.0833 6.69006V12.0833H5.42297C5.45085 10.4808 5.69397 8.88936 6.14583 7.35168L7.61698 7.09798ZM5.42297 12.9167H12.0833V18.3099C10.5861 18.2908 9.09261 18.1545 7.61658 17.902L6.14583 17.6483C5.69397 16.1106 5.45085 14.5192 5.42297 12.9167ZM7.47457 18.7233C8.9974 18.984 10.5383 19.1252 12.0833 19.1455V24.1455C9.69462 23.9158 7.61963 21.7287 6.44368 18.5457L7.47457 18.7233ZM12.9167 19.1455C14.4615 19.1252 16.0022 18.984 17.525 18.7233L18.5563 18.5449C17.3804 21.7287 15.3054 23.9166 12.9167 24.1451V19.1455ZM17.383 17.902C15.9072 18.1545 14.4139 18.2908 12.9167 18.3099V12.9167H19.577C19.5492 14.5192 19.306 16.1106 18.8542 17.6483L17.383 17.902ZM20.41 12.0833C20.3825 10.5369 20.1628 8.99984 19.7559 7.50753L23.3107 8.12093C23.823 9.38171 24.1093 10.7231 24.1563 12.0833H20.41ZM22.8892 7.20256L19.4816 6.61458C18.869 4.61609 17.723 2.82247 16.1666 1.427C19.0769 2.39827 21.4905 4.47164 22.8892 7.20256ZM8.83341 1.427C7.27702 2.82247 6.13098 4.61609 5.51839 6.61458L2.1108 7.20256C3.50952 4.47164 5.92305 2.39827 8.83341 1.427ZM2.1108 17.7974L5.51839 18.3854C6.13098 20.3839 7.27702 22.1775 8.83341 23.573C5.92305 22.6017 3.50952 20.5284 2.1108 17.7974ZM16.1666 23.573C17.723 22.1775 18.869 20.3839 19.4816 18.3854L22.8892 17.7974C21.4905 20.5284 19.0769 22.6017 16.1666 23.573Z" fill="black"/>
</svg>
