<svg width="25" height="25" viewBox="0 0 25 25" fill="none" xmlns="http://www.w3.org/2000/svg">
<path d="M8.85476 0C3.97249 0 0.000610352 3.97187 0.000610352 8.85415C0.000610352 13.7364 3.97249 17.7083 8.85476 17.7083C13.737 17.7083 17.7089 13.7364 17.7089 8.85415C17.7089 3.97187 13.7371 0 8.85476 0ZM8.85476 16.6667C4.54641 16.6667 1.04226 13.1625 1.04226 8.85415C1.04226 4.5458 4.54641 1.04165 8.85476 1.04165C13.1631 1.04165 16.6673 4.5458 16.6673 8.85415C16.6673 13.1625 13.1631 16.6667 8.85476 16.6667Z" fill="black"/>
<path d="M24.8473 24.1115L15.115 14.3792C14.9119 14.176 14.5817 14.176 14.3785 14.3792C14.1754 14.5823 14.1754 14.9125 14.3785 15.1156L24.1108 24.8479C24.2129 24.9489 24.3462 25 24.4796 25C24.6129 25 24.7462 24.949 24.8473 24.8479C25.0504 24.6448 25.0504 24.3146 24.8473 24.1115Z" fill="black"/>
</svg>
